<?xml version="1.0" encoding="UTF-8" standalone="no"?>
<!-- Created with Inkscape (http://www.inkscape.org/) -->

<svg
   width="210mm"
   height="297mm"
   viewBox="0 0 210 297"
   version="1.1"
   id="svg1661"
   inkscape:version="1.2.2 (b0a8486541, 2022-12-01)"
   sodipodi:docname="cv_dance.svg"
   xmlns:inkscape="http://www.inkscape.org/namespaces/inkscape"
   xmlns:sodipodi="http://sodipodi.sourceforge.net/DTD/sodipodi-0.dtd"
   xmlns="http://www.w3.org/2000/svg"
   xmlns:svg="http://www.w3.org/2000/svg">
  <sodipodi:namedview
     id="namedview1663"
     pagecolor="#505050"
     bordercolor="#ffffff"
     borderopacity="1"
     inkscape:showpageshadow="0"
     inkscape:pageopacity="0"
     inkscape:pagecheckerboard="1"
     inkscape:deskcolor="#505050"
     inkscape:document-units="mm"
     showgrid="false"
     inkscape:zoom="0.64765011"
     inkscape:cx="397.59122"
     inkscape:cy="562.80389"
     inkscape:window-width="1728"
     inkscape:window-height="908"
     inkscape:window-x="0"
     inkscape:window-y="0"
     inkscape:window-maximized="1"
     inkscape:current-layer="layer1" />
  <defs
     id="defs1658" />
  <g
     inkscape:label="Ebene 1"
     inkscape:groupmode="layer"
     id="layer1">
    <rect
       style="opacity:1;fill:#3490d1;stroke:#3490d1;stroke-width:14.0901;stroke-linejoin:round"
       id="rect2560"
       width="195.90988"
       height="194.92097"
       x="7.0450559"
       y="57.045055" />
    <g
       id="g15481"
       style="fill:#ffffff"
       transform="matrix(0.33106933,0,0,0.32939817,23.065211,69.193335)">
	<g
   id="g15479"
   style="fill:#ffffff">
		<circle
   cx="378.45499"
   cy="77.433998"
   r="39.174999"
   id="circle15477"
   style="fill:#ffffff" />

	</g>

</g>
    <g
       id="g15487"
       style="fill:#ffffff"
       transform="matrix(0.33106933,0,0,0.32939817,23.065211,69.193335)">
	<g
   id="g15485"
   style="fill:#ffffff">
		<path
   d="m 511.831,209.085 c -1.346,-9.71 -10.301,-16.494 -20.022,-15.145 l -60.822,8.435 -38.14,-43.109 25.95,17.292 0.07,-24.189 c 0.012,-4.292 -1.68,-8.413 -4.707,-11.455 -3.026,-3.043 -7.137,-4.758 -11.429,-4.771 -51.287,-0.134 -3.938,-0.01 -55.331,-0.144 -4.388,-0.011 -8.367,1.732 -11.289,4.562 l -47.103,14.764 c -2.941,0.922 -5.594,2.595 -7.692,4.853 l -45.553,49.004 c -6.675,7.181 -6.266,18.412 0.916,25.088 7.186,6.682 18.419,6.257 25.087,-0.915 l 42.349,-45.558 26.986,-8.458 c 0,0 -0.233,54.433 -0.287,80.695 -0.019,9.158 1.316,18.174 3.951,26.944 l 25.078,83.484 -34.321,76.291 c -4.336,9.639 -0.038,20.968 9.602,25.304 9.639,4.337 20.969,0.036 25.304,-9.601 l 37.269,-82.843 c 1.899,-4.224 2.204,-8.995 0.855,-13.426 l -18.859,-61.936 49.612,19.474 -17.543,82.668 c -2.195,10.339 4.408,20.499 14.747,22.693 10.337,2.194 20.499,-4.41 22.693,-14.747 l 20.909,-98.53 c 1.942,-9.153 -3.018,-18.368 -11.728,-21.787 l -39.879,-15.653 0.06,-20.71 c -9.029,0.106 -17.203,-5.031 -21.154,-12.865 l -31.151,-61.998 44.445,50.235 c 3.913,4.423 9.807,6.642 15.733,5.821 l 70.248,-9.741 c 9.713,-1.352 16.492,-10.315 15.146,-20.026 z"
   id="path15483"
   style="fill:#ffffff" />

	</g>

</g>
    <g
       id="g15493"
       style="fill:#ffffff"
       transform="matrix(0.33106933,0,0,0.32939817,23.065211,69.193335)">
	<g
   id="g15491"
   style="fill:#ffffff">
		<circle
   cx="59.658001"
   cy="84.498001"
   r="39.594002"
   id="circle15489"
   style="fill:#ffffff" />

	</g>

</g>
    <g
       id="g15499"
       style="fill:#ffffff"
       transform="matrix(0.33106933,0,0,0.32939817,23.065211,69.193335)">
	<g
   id="g15497"
   style="fill:#ffffff">
		<path
   d="m 212.995,169.601 c -1.238,-5.46 -4.952,-10.029 -10.042,-12.354 0,0 -46.387,-20.208 -68.155,-31.139 -8.163,-4.099 -17.213,-7.126 -26.276,-3.409 L 64.394,140.8 c -13.666,5.606 -20.201,21.229 -14.595,34.896 l 12.506,30.488 31.29,-49.294 -20.839,64.964 c -36.63,10.379 -23.085,6.541 -59.701,16.916 -9.457,2.679 -15.089,12.546 -12.369,22.149 2.7,9.532 12.62,15.069 22.149,12.369 l 68.954,-19.537 c 5.792,-1.642 10.359,-6.07 12.191,-11.78 l 23.012,-71.737 -5.846,73.11 c -0.626,7.838 -8.36,22.357 -24.662,26.976 l -7.052,1.998 3.403,8.296 -35.544,62.352 c -2.179,3.822 -3.094,8.234 -2.62,12.607 L 65.492,455.1 c 1.248,11.483 11.57,19.763 23.031,18.513 11.474,-1.247 19.762,-11.558 18.515,-23.031 l -10.09,-92.8 39.51,-69.309 3.027,-1.242 -31.208,61.23 c -2.56,5.025 -2.981,10.871 -1.167,16.211 l 32.242,94.891 c 3.712,10.926 15.576,16.775 26.507,13.062 10.926,-3.713 16.774,-15.58 13.062,-26.506 l -29.404,-86.538 38.785,-75.667 c 5.401,-10.537 5.917,-22.912 1.409,-33.862 l -11.48,-27.893 31.027,-37.083 c 3.591,-4.294 4.974,-10.016 3.737,-15.475 z m -50.155,15.039 -3.169,-7.725 6.969,3.184 z"
   id="path15495"
   style="fill:#ffffff" />

	</g>

</g>
  </g>
</svg>
