<?xml version="1.0" encoding="UTF-8" standalone="no"?>
<!-- Created with Inkscape (http://www.inkscape.org/) -->

<svg
   width="210mm"
   height="297mm"
   viewBox="0 0 210 297"
   version="1.1"
   id="svg1661"
   inkscape:version="1.2.2 (b0a8486541, 2022-12-01)"
   sodipodi:docname="cv_guitar.svg"
   xmlns:inkscape="http://www.inkscape.org/namespaces/inkscape"
   xmlns:sodipodi="http://sodipodi.sourceforge.net/DTD/sodipodi-0.dtd"
   xmlns="http://www.w3.org/2000/svg"
   xmlns:svg="http://www.w3.org/2000/svg">
  <sodipodi:namedview
     id="namedview1663"
     pagecolor="#505050"
     bordercolor="#ffffff"
     borderopacity="1"
     inkscape:showpageshadow="0"
     inkscape:pageopacity="0"
     inkscape:pagecheckerboard="1"
     inkscape:deskcolor="#505050"
     inkscape:document-units="mm"
     showgrid="false"
     inkscape:zoom="0.64765011"
     inkscape:cx="399.13527"
     inkscape:cy="564.34793"
     inkscape:window-width="1728"
     inkscape:window-height="908"
     inkscape:window-x="0"
     inkscape:window-y="0"
     inkscape:window-maximized="1"
     inkscape:current-layer="layer1" />
  <defs
     id="defs1658" />
  <g
     inkscape:label="Ebene 1"
     inkscape:groupmode="layer"
     id="layer1">
    <rect
       style="opacity:1;fill:#3490d1;stroke:#3490d1;stroke-width:14.0983;stroke-linejoin:round"
       id="rect2560"
       width="195.9017"
       height="195.15747"
       x="7.0491514"
       y="57.049152" />
    <g
       id="g3655"
       style="fill:#ffffff"
       transform="matrix(0.3310561,0,0,0.32979844,19.267451,72.340337)">
      <g
         id="g3653"
         style="fill:#ffffff">
        <path
           d="m 497.624,14.376 c -19.168,-19.168 -50.247,-19.168 -69.414,0 l -27.065,27.065 c -5.939,5.939 -5.939,15.569 0,21.509 l 1.176,1.176 -79.195,79.195 c -45.748,-30.539 -100.118,-32.422 -131.329,-1.21 -8.248,8.248 -14.184,18.115 -17.89,29.012 -7.107,20.896 -26.2,35.402 -48.236,36.653 -32.612,1.851 -63.585,14.452 -87.279,38.145 -55.818,55.818 -50.099,152.039 12.776,214.913 62.874,62.874 159.094,68.594 214.913,12.776 23.693,-23.693 36.296,-54.666 38.145,-87.279 1.25,-22.035 15.758,-41.13 36.653,-48.236 10.897,-3.706 20.763,-9.642 29.012,-17.89 31.21,-31.211 29.329,-85.58 -1.21,-131.329 l 79.195,-79.195 1.176,1.176 c 5.939,5.939 15.569,5.939 21.509,0 L 497.626,83.792 C 516.793,64.623 516.793,33.544 497.624,14.376 Z M 177.537,440.034 c -3.6,3.599 -8.318,5.399 -13.037,5.399 -4.719,0 -9.437,-1.8 -13.037,-5.399 L 71.967,360.538 c -7.2,-7.201 -7.2,-18.874 0,-26.075 7.201,-7.2 18.874,-7.2 26.075,0 l 79.496,79.496 c 7.198,7.201 7.198,18.874 -0.001,26.075 z M 291.349,296.737 c -21.011,21.011 -55.075,21.011 -76.086,0 -21.011,-21.011 -21.011,-55.075 0,-76.086 21.011,-21.011 55.075,-21.011 76.086,0 21.011,21.011 21.009,55.076 0,76.086 z"
           id="path3651"
           style="fill:#ffffff" />
      </g>
    </g>
  </g>
</svg>
