<?xml version="1.0" encoding="UTF-8" standalone="no"?>
<!-- Created with Inkscape (http://www.inkscape.org/) -->

<svg
   width="210mm"
   height="297mm"
   viewBox="0 0 210 297"
   version="1.1"
   id="svg1661"
   inkscape:version="1.2.2 (b0a8486541, 2022-12-01)"
   sodipodi:docname="cv_motorcycle.svg"
   xmlns:inkscape="http://www.inkscape.org/namespaces/inkscape"
   xmlns:sodipodi="http://sodipodi.sourceforge.net/DTD/sodipodi-0.dtd"
   xmlns="http://www.w3.org/2000/svg"
   xmlns:svg="http://www.w3.org/2000/svg">
  <sodipodi:namedview
     id="namedview1663"
     pagecolor="#505050"
     bordercolor="#ffffff"
     borderopacity="1"
     inkscape:showpageshadow="0"
     inkscape:pageopacity="0"
     inkscape:pagecheckerboard="1"
     inkscape:deskcolor="#505050"
     inkscape:document-units="mm"
     showgrid="false"
     inkscape:zoom="0.64765011"
     inkscape:cx="399.13527"
     inkscape:cy="564.34793"
     inkscape:window-width="1728"
     inkscape:window-height="908"
     inkscape:window-x="0"
     inkscape:window-y="0"
     inkscape:window-maximized="1"
     inkscape:current-layer="layer1" />
  <defs
     id="defs1658" />
  <g
     inkscape:label="Ebene 1"
     inkscape:groupmode="layer"
     id="layer1">
    <rect
       style="opacity:1;fill:#3490d1;stroke:#3490d1;stroke-width:14.0821;stroke-linejoin:round"
       id="rect2560"
       width="195.91786"
       height="194.69244"
       x="7.04105"
       y="57.04105" />
    <g
       id="g10815"
       style="fill:#ffffff"
       transform="matrix(9.5928384,0,0,9.5328375,20.317632,70.97503)">
      <path
         style="fill:#ffffff"
         d="M 17.668,5.734 C 17.508,4.532 13.817,4.643 13.984,5.282 14.151,5.921 12.732,6.413 12.732,6.413 L 10.692,6.81 C 9.451,5.824 8.89,5.515 8.46,5.239 6.789,4.168 5.037,6.375 5.037,6.375 c 0,0 -1.622,-0.198 0.299,-2.119 C -1.349,7.688 1.833,8.26 1.833,8.26 h 1.879 l -0.3,0.485 C 3.115,8.614 2.785,8.54 2.437,8.54 1.091,8.54 0,9.632 0,10.977 c 0,1.346 1.091,2.438 2.437,2.438 1.346,0 2.437,-1.092 2.437,-2.438 0,-0.755 -0.344,-1.429 -0.884,-1.876 l 0.258,-0.418 2.599,2.896 v 0 h 0.226 4.713 0.584 c 0.268,1.054 1.222,1.836 2.359,1.836 1.346,0 2.436,-1.092 2.436,-2.438 0,-1.345 -1.09,-2.437 -2.436,-2.437 -1.23,0 -2.244,0.912 -2.411,2.096 h -0.023 c 0,0 -0.213,-0.783 -0.592,-1.753 1.266,-0.423 6.104,-2.104 5.965,-3.149 z m -15.23,6.775 c -0.845,0 -1.531,-0.687 -1.531,-1.532 0,-0.845 0.687,-1.531 1.531,-1.531 0.173,0 0.338,0.029 0.493,0.083 l -0.528,0.856 c -0.004,0.006 -0.011,0.01 -0.015,0.017 l -0.221,0.363 c -10e-4,0.004 0,0.006 -0.002,0.008 l -0.016,0.026 0.005,0.004 c -0.07,0.154 -0.021,0.34 0.128,0.431 0.148,0.09 0.333,0.049 0.438,-0.083 l 0.007,0.005 0.02,-0.032 C 2.748,11.122 2.75,11.121 2.751,11.12 L 2.85,10.958 3.51,9.885 c 0.284,0.278 0.46,0.665 0.46,1.093 -0.001,0.844 -0.688,1.531 -1.532,1.531 z M 14.73,9.445 c 0.844,0 1.531,0.687 1.531,1.531 0,0.846 -0.688,1.532 -1.531,1.532 -0.632,0 -1.176,-0.385 -1.409,-0.931 h 1.859 v -0.008 h 0.043 c 0.259,0.004 0.472,-0.2 0.475,-0.46 0.005,-0.258 -0.202,-0.47 -0.46,-0.475 l -0.583,-0.007 c -0.03,-0.001 -0.059,0.002 -0.088,0.007 H 13.238 C 13.392,9.955 14.001,9.445 14.73,9.445 Z"
         id="path10813" />
    </g>
  </g>
</svg>
